<svg width="25" height="24" viewBox="0 0 25 24" fill="none" xmlns="http://www.w3.org/2000/svg">
<path d="M24.287 16.7657L18.8182 14.5413C18.5846 14.4468 18.3249 14.4269 18.0783 14.4846C17.8318 14.5422 17.6116 14.6744 17.451 14.8611L15.0291 17.6693C11.2281 15.9685 8.16919 13.0655 6.37706 9.45819L9.3361 7.15969C9.53321 7.00754 9.67272 6.79859 9.73352 6.56447C9.79431 6.33034 9.77307 6.08379 9.67302 5.86215L7.32923 0.671984C7.21942 0.433055 7.0252 0.237978 6.78007 0.12039C6.53494 0.00280137 6.25426 -0.0299271 5.98643 0.0278477L0.908219 1.14003C0.649996 1.19662 0.419609 1.3346 0.25466 1.53146C0.0897111 1.72832 -5.94839e-05 1.97242 2.95718e-08 2.22394C2.95718e-08 14.1103 10.1515 23.726 22.6566 23.726C22.9217 23.7262 23.1791 23.6411 23.3866 23.4845C23.5941 23.328 23.7396 23.1092 23.7992 22.8641L24.9711 18.0447C25.0316 17.7892 24.9964 17.5218 24.8715 17.2884C24.7467 17.0549 24.54 16.8701 24.287 16.7657Z" fill="white"/>
</svg>
