<svg width="153" height="175" viewBox="0 0 153 175" fill="none" xmlns="http://www.w3.org/2000/svg">
<path d="M73.3064 0.915695C75.1378 -0.305232 77.5237 -0.305232 79.3551 0.915695C100.49 15.0056 123.347 23.7967 147.98 27.3158C150.666 27.6995 152.662 29.9999 152.662 32.7132V81.783C152.662 124.216 127.505 155.177 78.288 174.107C77.0282 174.591 75.6334 174.591 74.3736 174.107C25.1564 155.177 0 124.216 0 81.783V32.7132C0 29.9999 1.99512 27.6995 4.68114 27.3158C29.3146 23.7967 52.1716 15.0056 73.3064 0.915695ZM71.9596 14.6754C52.9163 26.1276 32.5541 33.7005 10.9044 37.3788V81.783C10.9044 118.771 32.3637 145.719 76.3308 163.165C120.298 145.719 141.757 118.771 141.757 81.783V37.3788C120.107 33.7005 99.7453 26.1276 80.702 14.6754L76.3308 11.9637L71.9596 14.6754Z" fill="url(#paint0_linear_212_82)"/>
<path d="M94.2068 97.7891C94.2068 82.9345 66.8212 83.9046 66.8212 74.9361C66.8212 70.5951 70.9743 68.475 75.7916 68.475C83.8927 68.475 85.3351 73.6795 89.0043 73.6795C91.6026 73.6795 92.8534 72.0434 92.8534 70.2098C92.8534 65.9482 86.3923 62.7225 80.1965 61.6053V57.4928C80.1965 54.9274 78.1209 52.8459 75.5535 52.8459C72.9841 52.8459 70.9066 54.9274 70.9066 57.4928V61.7505C64.1511 63.2879 58.3406 67.9735 58.3406 75.6118C58.3406 89.8797 85.7224 89.3027 85.7224 99.3245C85.7224 102.796 81.9642 106.268 75.7916 106.268C66.5346 106.268 63.4502 100.002 59.6901 100.002C57.8585 100.002 56.2205 101.543 56.2205 103.867C56.2205 107.557 62.4066 111.999 70.9124 113.24L70.9066 113.269V117.91C70.9066 120.478 72.988 122.559 75.5554 122.559C78.1209 122.559 80.2003 120.478 80.2003 117.91V113.269C80.2003 113.215 80.1732 113.172 80.1694 113.124C87.8232 111.695 94.2068 106.705 94.2068 97.7891Z" fill="url(#paint1_linear_212_82)"/>
<defs>
<linearGradient id="paint0_linear_212_82" x1="6.1207e-07" y1="88.4994" x2="152.662" y2="88.4994" gradientUnits="userSpaceOnUse">
<stop stop-color="#5DC9F2"/>
<stop offset="1" stop-color="#47B850"/>
</linearGradient>
<linearGradient id="paint1_linear_212_82" x1="56.2205" y1="88.2076" x2="94.2068" y2="88.2076" gradientUnits="userSpaceOnUse">
<stop stop-color="#5DC9F2"/>
<stop offset="1" stop-color="#47B850"/>
</linearGradient>
</defs>
</svg>
