<svg width="174" height="174" viewBox="0 0 174 174" fill="none" xmlns="http://www.w3.org/2000/svg">
<path d="M87 0C69.793 0 52.9725 5.10246 38.6654 14.6621C24.3583 24.2218 13.2073 37.8094 6.62252 53.7065C0.0376957 69.6037 -1.68519 87.0965 1.67172 103.973C5.02863 120.849 13.3146 136.351 25.4817 148.518C37.6489 160.685 53.1508 168.971 70.0272 172.328C86.9035 175.685 104.396 173.962 120.293 167.377C136.191 160.793 149.778 149.642 159.338 135.335C168.898 121.027 174 104.207 174 87C173.974 63.9342 164.799 41.8205 148.489 25.5105C132.179 9.20053 110.066 0.0261065 87 0ZM87 160.615C72.4403 160.615 58.2075 156.298 46.1015 148.209C33.9955 140.12 24.5601 128.623 18.9883 115.171C13.4165 101.72 11.9587 86.9183 14.7991 72.6383C17.6396 58.3584 24.6508 45.2413 34.9461 34.9461C45.2414 24.6508 58.3584 17.6396 72.6384 14.7991C86.9184 11.9586 101.72 13.4165 115.171 18.9882C128.623 24.56 140.12 33.9955 148.209 46.1015C156.298 58.2075 160.615 72.4402 160.615 87C160.593 106.517 152.83 125.229 139.03 139.03C125.229 152.83 106.517 160.593 87 160.615ZM140.538 87C140.538 87.8788 140.365 88.7491 140.029 89.561C139.693 90.373 139.2 91.1108 138.578 91.7322C137.957 92.3537 137.219 92.8466 136.407 93.1829C135.595 93.5192 134.725 93.6923 133.846 93.6923H87C86.1212 93.6923 85.2509 93.5192 84.439 93.1829C83.627 92.8466 82.8892 92.3537 82.2678 91.7322C81.6463 91.1108 81.1534 90.373 80.8171 89.561C80.4808 88.7491 80.3077 87.8788 80.3077 87V40.1538C80.3077 38.3789 81.0128 36.6767 82.2678 35.4217C83.5229 34.1666 85.2251 33.4615 87 33.4615C88.7749 33.4615 90.4771 34.1666 91.7322 35.4217C92.9872 36.6767 93.6923 38.3789 93.6923 40.1538V80.3077H133.846C134.725 80.3076 135.595 80.4807 136.407 80.817C137.219 81.1534 137.957 81.6463 138.578 82.2677C139.2 82.8892 139.693 83.627 140.029 84.4389C140.365 85.2509 140.538 86.1211 140.538 87Z" fill="url(#paint0_linear_212_59)"/>
<defs>
<linearGradient id="paint0_linear_212_59" x1="6.97622e-07" y1="88.2608" x2="174" y2="88.2608" gradientUnits="userSpaceOnUse">
<stop stop-color="#5DC9F2"/>
<stop offset="1" stop-color="#47B850"/>
</linearGradient>
</defs>
</svg>
