<svg width="258" height="163" viewBox="0 0 258 163" fill="none" xmlns="http://www.w3.org/2000/svg">
<path d="M239.643 69.1014L232.97 42.4097C234.794 42.0222 236.163 40.4036 236.163 38.4645V34.1609C236.163 24.8169 228.561 17.2153 219.217 17.2153H188.823V8.33841C188.823 3.74041 185.083 0 180.485 0H25.5527C20.9547 0 17.2143 3.74041 17.2143 8.33841V81.5008C17.2143 83.7288 19.0206 85.5356 21.2491 85.5356C23.4772 85.5356 25.284 83.7293 25.284 81.5008V8.33841C25.284 8.19044 25.4043 8.06965 25.5527 8.06965H180.484C180.633 8.06965 180.753 8.19094 180.753 8.33841V81.5018C180.753 83.7298 182.559 85.5366 184.788 85.5366C187.016 85.5366 188.822 83.7303 188.822 81.5018V76.9279H236.418C236.422 76.9279 236.425 76.9289 236.428 76.9289C236.432 76.9289 236.436 76.9284 236.439 76.9284C242.296 76.9325 247.269 80.7765 248.977 86.0736H236.431C234.203 86.0736 232.396 87.8799 232.396 90.1084V98.7156C232.396 105.687 238.067 111.358 245.038 111.358H249.611V129.11H239.061C235.596 119.103 226.083 111.895 214.913 111.895C203.742 111.895 194.229 119.103 190.764 129.11H188.821V98.7151C188.821 96.487 187.015 94.6803 184.787 94.6803C182.559 94.6803 180.752 96.4865 180.752 98.7151V129.109H97.0417C93.576 119.102 84.0635 111.894 72.8931 111.894C61.7227 111.894 52.2096 119.102 48.7445 129.109H25.5527C25.4043 129.109 25.284 128.988 25.284 128.84V119.964H42.7675C44.9956 119.964 46.8024 118.157 46.8024 115.929C46.8024 113.7 44.9961 111.894 42.7675 111.894H21.2522C21.2512 111.894 21.2507 111.894 21.2496 111.894C21.2486 111.894 21.2481 111.894 21.2471 111.894H4.03483C1.80679 111.894 0 113.7 0 115.929C0 118.157 1.80629 119.964 4.03483 119.964H17.2148V128.84C17.2148 133.438 20.9552 137.179 25.5532 137.179H47.3474C47.3464 137.268 47.3404 137.358 47.3404 137.447C47.3404 151.537 58.8037 163 72.8931 163C86.9825 163 98.4458 151.537 98.4458 137.447C98.4458 137.358 98.4398 137.268 98.4388 137.179H189.367C189.366 137.268 189.36 137.358 189.36 137.447C189.36 151.537 200.823 163 214.913 163C229.002 163 240.465 151.537 240.465 137.447C240.465 137.358 240.459 137.268 240.458 137.179H253.646C255.874 137.179 257.681 135.372 257.681 133.144V90.1074C257.681 79.4821 249.842 70.654 239.643 69.1014ZM188.823 25.2845H219.217C224.112 25.2845 228.094 29.2665 228.094 34.1609V34.4296H188.823V25.2845ZM188.823 68.8588V42.4988H224.674L231.264 68.8588H188.823ZM72.8931 154.932C63.2527 154.932 55.4095 147.089 55.4095 137.448C55.4095 127.807 63.2527 119.965 72.8931 119.965C82.5335 119.965 90.3767 127.807 90.3767 137.448C90.3767 147.089 82.5335 154.932 72.8931 154.932ZM214.914 154.932C205.273 154.932 197.43 147.089 197.43 137.448C197.43 127.807 205.273 119.965 214.914 119.965C224.554 119.965 232.397 127.807 232.397 137.448C232.397 147.089 224.554 154.932 214.914 154.932ZM249.612 103.288H245.039C242.518 103.288 240.466 101.237 240.466 98.7151V94.1423H249.612V103.288H249.612Z" fill="url(#paint0_linear_215_170)"/>
<path d="M72.8931 129.11C68.2951 129.11 64.5547 132.85 64.5547 137.448C64.5547 142.046 68.2951 145.787 72.8931 145.787C77.4911 145.787 81.2315 142.046 81.2315 137.448C81.2315 132.85 77.4911 129.11 72.8931 129.11Z" fill="url(#paint1_linear_215_170)"/>
<path d="M214.914 129.11C210.316 129.11 206.575 132.85 206.575 137.448C206.575 142.046 210.316 145.787 214.914 145.787C219.512 145.787 223.252 142.046 223.252 137.448C223.252 132.85 219.512 129.11 214.914 129.11Z" fill="url(#paint2_linear_215_170)"/>
<path d="M167.573 111.896H107.322C105.094 111.896 103.287 113.702 103.287 115.93C103.287 118.159 105.094 119.965 107.322 119.965H167.573C169.801 119.965 171.608 118.159 171.608 115.93C171.608 113.702 169.802 111.896 167.573 111.896Z" fill="url(#paint3_linear_215_170)"/>
<path d="M64.286 94.6807H12.642C10.414 94.6807 8.60718 96.4869 8.60718 98.7155C8.60718 100.944 10.4135 102.75 12.642 102.75H64.286C66.514 102.75 68.3208 100.944 68.3208 98.7155C68.3208 96.4869 66.514 94.6807 64.286 94.6807Z" fill="url(#paint4_linear_215_170)"/>
<path d="M103.019 21.5183C81.8098 21.5183 64.5547 38.7734 64.5547 59.9823C64.5547 81.1912 81.8098 98.4462 103.019 98.4462C124.228 98.4462 141.483 81.1912 141.483 59.9823C141.483 38.7734 124.228 21.5183 103.019 21.5183ZM103.019 90.3771C86.2593 90.3771 72.6243 76.7421 72.6243 59.9828C72.6243 43.2234 86.2593 29.5885 103.019 29.5885C119.778 29.5885 133.413 43.2234 133.413 59.9828C133.413 76.7421 119.778 90.3771 103.019 90.3771Z" fill="url(#paint5_linear_215_170)"/>
<path d="M118.783 70.0404L107.054 58.3114V42.768C107.054 40.5399 105.247 38.7332 103.019 38.7332C100.79 38.7332 98.9839 40.5394 98.9839 42.768V59.9828C98.9839 61.0528 99.4087 62.0785 100.166 62.8354L113.076 75.7461C113.864 76.5338 114.897 76.9279 115.929 76.9279C116.961 76.9279 117.994 76.5343 118.782 75.7461C120.358 74.1704 120.358 71.6162 118.783 70.0404Z" fill="url(#paint6_linear_215_170)"/>
<defs>
<linearGradient id="paint0_linear_215_170" x1="1.03313e-06" y1="82.6811" x2="257.681" y2="82.6811" gradientUnits="userSpaceOnUse">
<stop stop-color="#5DC9F2"/>
<stop offset="1" stop-color="#47B850"/>
</linearGradient>
<linearGradient id="paint1_linear_215_170" x1="64.5547" y1="137.569" x2="81.2315" y2="137.569" gradientUnits="userSpaceOnUse">
<stop stop-color="#5DC9F2"/>
<stop offset="1" stop-color="#47B850"/>
</linearGradient>
<linearGradient id="paint2_linear_215_170" x1="206.575" y1="137.569" x2="223.252" y2="137.569" gradientUnits="userSpaceOnUse">
<stop stop-color="#5DC9F2"/>
<stop offset="1" stop-color="#47B850"/>
</linearGradient>
<linearGradient id="paint3_linear_215_170" x1="103.287" y1="115.989" x2="171.608" y2="115.989" gradientUnits="userSpaceOnUse">
<stop stop-color="#5DC9F2"/>
<stop offset="1" stop-color="#47B850"/>
</linearGradient>
<linearGradient id="paint4_linear_215_170" x1="8.60718" y1="98.774" x2="68.3208" y2="98.774" gradientUnits="userSpaceOnUse">
<stop stop-color="#5DC9F2"/>
<stop offset="1" stop-color="#47B850"/>
</linearGradient>
<linearGradient id="paint5_linear_215_170" x1="64.5547" y1="60.5397" x2="141.483" y2="60.5397" gradientUnits="userSpaceOnUse">
<stop stop-color="#5DC9F2"/>
<stop offset="1" stop-color="#47B850"/>
</linearGradient>
<linearGradient id="paint6_linear_215_170" x1="98.9839" y1="58.1073" x2="119.964" y2="58.1073" gradientUnits="userSpaceOnUse">
<stop stop-color="#5DC9F2"/>
<stop offset="1" stop-color="#47B850"/>
</linearGradient>
</defs>
</svg>
