<svg width="29" height="27" viewBox="0 0 29 27" fill="none" xmlns="http://www.w3.org/2000/svg">
<path d="M1.95829 15.2917H23.2075L16.7037 23.1033C16.5531 23.2845 16.4397 23.4935 16.3699 23.7185C16.3001 23.9435 16.2753 24.1801 16.297 24.4147C16.3406 24.8884 16.5707 25.3255 16.9366 25.6296C17.3025 25.9337 17.7742 26.08 18.248 26.0363C18.7218 25.9926 19.1588 25.7625 19.4629 25.3967L28.4212 14.6467C28.4815 14.5611 28.5354 14.4713 28.5825 14.3779C28.5825 14.2883 28.672 14.2346 28.7079 14.145C28.7891 13.9396 28.8316 13.7209 28.8333 13.5C28.8316 13.2791 28.7891 13.0604 28.7079 12.855C28.7079 12.7654 28.6183 12.7117 28.5825 12.6221C28.5354 12.5286 28.4815 12.4388 28.4212 12.3533L19.4629 1.60332C19.2944 1.40107 19.0835 1.23842 18.845 1.12694C18.6066 1.01546 18.3465 0.957889 18.0833 0.958316C17.6647 0.957498 17.259 1.1033 16.9366 1.3704C16.7552 1.52081 16.6052 1.70553 16.4953 1.91399C16.3854 2.12244 16.3177 2.35053 16.296 2.5852C16.2744 2.81987 16.2993 3.0565 16.3692 3.28154C16.4392 3.50658 16.5528 3.7156 16.7037 3.89665L23.2075 11.7083H1.95829C1.48311 11.7083 1.0274 11.8971 0.691393 12.2331C0.355391 12.5691 0.166626 13.0248 0.166626 13.5C0.166626 13.9752 0.355391 14.4309 0.691393 14.7669C1.0274 15.1029 1.48311 15.2917 1.95829 15.2917Z" fill="white"/>
</svg>
