<svg width="175" height="178" viewBox="0 0 175 178" fill="none" xmlns="http://www.w3.org/2000/svg">
<path d="M30.7111 76.2501C29.138 76.2501 27.4822 75.5878 26.3231 74.4287C24.5845 72.6073 24.0049 69.9578 24.9984 67.6396L40.3977 30.8802C40.7288 30.1351 40.8944 29.6383 41.1428 29.2244C53.3959 0.99249 69.0435 -5.87923 96.6959 4.71811C98.2689 5.29765 99.5108 6.53952 100.173 8.11256C100.835 9.6856 100.835 11.4242 100.173 12.9973L75.9152 69.2955C74.9217 71.6136 72.6863 73.0212 70.2026 73.0212H46.607C41.8879 73.0212 37.4172 73.932 33.112 75.7534C32.3669 76.0845 31.539 76.2501 30.7111 76.2501ZM75.5012 12.4177C65.2351 12.4177 58.9429 19.1238 52.4024 34.3575C52.3196 34.6058 52.154 34.8542 52.0713 35.1026L41.2256 60.8507C43.047 60.6852 44.7856 60.6024 46.607 60.6024H66.063L86.0158 14.2391C82.1246 12.9973 78.6473 12.4177 75.5012 12.4177Z" fill="url(#paint0_linear_212_56)"/>
<path d="M139.089 74.6794C138.51 74.6794 137.848 74.5966 137.268 74.431C134.122 73.5203 130.81 73.0235 127.333 73.0235H70.2071C68.1373 73.0235 66.1503 71.9476 64.9913 70.209C63.915 68.4703 63.6666 66.235 64.4945 64.3308L88.5038 8.61211C89.7457 5.63161 93.3885 3.56183 96.4518 4.63811C97.4453 4.96928 98.356 5.38324 99.3495 5.7972L118.888 13.9936C130.313 18.7127 137.93 23.6802 142.898 29.6411C143.891 30.8002 144.719 32.0421 145.547 33.3668C146.458 34.7742 147.286 36.43 147.865 38.1687C148.114 38.7482 148.528 39.8245 148.776 40.9836C151.094 48.8488 149.935 58.4526 144.968 70.8713C143.891 73.1891 141.573 74.6794 139.089 74.6794ZM79.6451 60.6052H127.416C130.065 60.6052 132.632 60.8535 135.198 61.2675C137.516 54.0646 138.013 48.5176 136.688 44.0469C136.523 43.3017 136.357 42.9706 136.274 42.6394C135.778 41.3147 135.447 40.5696 135.033 39.9073C134.453 38.9966 134.039 38.2515 133.377 37.5063C129.817 33.2012 123.525 29.2272 114.086 25.336L97.7765 18.5471L79.6451 60.6052Z" fill="url(#paint1_linear_212_56)"/>
<path d="M119.301 178H54.7232C52.405 178 50.2524 177.834 48.0999 177.586C19.0401 175.682 2.48176 159.041 0.494768 129.65C0.246393 127.828 0.0808105 125.593 0.0808105 123.358V107.213C0.0808105 88.5852 11.1749 71.7787 28.3127 64.3274C34.1909 61.8437 40.3175 60.6018 46.6924 60.6018H127.497C132.216 60.6018 136.77 61.2641 140.992 62.5888C160.448 68.467 174.109 86.8465 174.109 107.213V123.358C174.109 125.179 174.026 126.918 173.943 128.573C172.122 160.945 153.245 178 119.301 178ZM46.6096 73.0204C41.8905 73.0204 37.4198 73.9311 33.1146 75.7525C20.5303 81.2167 12.4167 93.5526 12.4167 107.213V123.358C12.4167 125.096 12.5823 126.835 12.7479 128.491C14.3209 152.086 25.9118 163.677 49.1762 165.25C51.2459 165.498 52.9018 165.664 54.6404 165.664H119.218C146.539 165.664 159.951 153.659 161.276 127.994C161.359 126.504 161.441 125.013 161.441 123.358V107.213C161.441 92.228 151.424 78.8158 137.183 74.4278C134.037 73.5171 130.726 73.0204 127.249 73.0204H46.6096Z" fill="url(#paint2_linear_212_56)"/>
<path d="M6.20936 113.422C2.81491 113.422 0 110.607 0 107.213V82.9551C0 56.8758 18.4625 34.3565 43.9623 29.389C46.1976 28.9751 48.5158 29.803 50.006 31.5416C51.4135 33.2802 51.8275 35.764 50.9168 37.8337L36.4282 72.4406C35.7659 73.9308 34.6068 75.0899 33.1994 75.7522C20.6151 81.2165 12.5015 93.5524 12.5015 107.213C12.4187 110.607 9.6866 113.422 6.20936 113.422ZM34.0273 46.1129C23.43 52.0739 15.7304 62.5056 13.3294 74.676C16.9723 70.9503 21.1946 67.8043 25.9965 65.4861L34.0273 46.1129Z" fill="url(#paint3_linear_212_56)"/>
<path d="M167.809 113.423C164.415 113.423 161.6 110.608 161.6 107.213C161.6 92.2281 151.582 78.8159 137.342 74.4279C135.686 73.9312 134.279 72.7721 133.534 71.1989C132.789 69.6259 132.706 67.8044 133.368 66.2314C137.259 56.5448 138.253 49.5075 136.68 44.0433C136.514 43.2982 136.349 42.967 136.266 42.6358C135.189 40.2349 135.769 37.42 137.673 35.5986C139.577 33.7771 142.475 33.3632 144.793 34.6051C162.842 44.0433 174.019 62.5886 174.019 82.9554V107.213C174.019 110.608 171.204 113.423 167.809 113.423ZM147.029 64.9067C152.245 67.3077 156.881 70.7021 160.772 74.7591C159.199 66.6454 155.308 59.2769 149.595 53.4815C149.181 56.9588 148.353 60.7672 147.029 64.9067Z" fill="url(#paint4_linear_212_56)"/>
<defs>
<linearGradient id="paint0_linear_212_56" x1="24.5139" y1="38.6776" x2="100.67" y2="38.6776" gradientUnits="userSpaceOnUse">
<stop stop-color="#5DC9F2"/>
<stop offset="1" stop-color="#47B850"/>
</linearGradient>
<linearGradient id="paint1_linear_212_56" x1="64.0017" y1="40.0241" x2="149.923" y2="40.0241" gradientUnits="userSpaceOnUse">
<stop stop-color="#5DC9F2"/>
<stop offset="1" stop-color="#47B850"/>
</linearGradient>
<linearGradient id="paint2_linear_212_56" x1="0.0808112" y1="120.152" x2="174.109" y2="120.152" gradientUnits="userSpaceOnUse">
<stop stop-color="#5DC9F2"/>
<stop offset="1" stop-color="#47B850"/>
</linearGradient>
<linearGradient id="paint3_linear_212_56" x1="2.06082e-07" y1="71.9628" x2="51.4007" y2="71.9628" gradientUnits="userSpaceOnUse">
<stop stop-color="#5DC9F2"/>
<stop offset="1" stop-color="#47B850"/>
</linearGradient>
<linearGradient id="paint4_linear_212_56" x1="132.919" y1="74.2341" x2="174.019" y2="74.2341" gradientUnits="userSpaceOnUse">
<stop stop-color="#5DC9F2"/>
<stop offset="1" stop-color="#47B850"/>
</linearGradient>
</defs>
</svg>
