<svg width="57" height="57" viewBox="0 0 57 57" fill="none" xmlns="http://www.w3.org/2000/svg">
<path d="M17.1917 35.988C17.1896 35.9858 17.1885 35.9846 17.1885 35.9846M54.7955 47.9164V54.7955H2V47.9164C2 45.7497 3.65272 43.3093 6.75594 41.0452C9.65876 38.9273 13.5166 37.2071 17.3677 36.2621C17.3854 36.2939 17.404 36.3287 17.4239 36.3664C17.4666 36.4478 17.5087 36.5316 17.5563 36.6265L17.5621 36.638C17.6059 36.7251 17.6562 36.8257 17.7068 36.922L18.1435 37.7514H19.0809H25.3914C26.8221 37.751 27.5204 37.7512 28.2269 37.7514C28.9173 37.7515 29.6159 37.7517 31.0144 37.7514H37.3253H38.2626L38.6992 36.922C38.8244 36.6843 39.0228 36.3965 39.2131 36.2135C39.214 36.2125 39.2149 36.2117 39.2157 36.2108C43.137 37.1441 47.0835 38.8885 50.0396 41.0452C53.1428 43.3093 54.7955 45.7497 54.7955 47.9164Z" stroke="url(#paint0_linear_26_56)" stroke-width="3.5"/>
<mask id="path-2-inside-1_26_56" fill="white">
<path fill-rule="evenodd" clip-rule="evenodd" d="M15.9753 48.6071C16.8113 48.6071 17.5281 47.9231 17.5281 47.0315C17.5281 46.1399 16.8113 45.4558 15.9753 45.4558C15.1392 45.4558 14.4225 46.1399 14.4225 47.0315C14.4225 47.9231 15.1392 48.6071 15.9753 48.6071ZM15.9753 51.6899C18.5481 51.6899 20.6337 49.6043 20.6337 47.0315C20.6337 44.4586 18.5481 42.373 15.9753 42.373C13.4024 42.373 11.3168 44.4586 11.3168 47.0315C11.3168 49.6043 13.4024 51.6899 15.9753 51.6899Z"/>
</mask>
<path fill-rule="evenodd" clip-rule="evenodd" d="M15.9753 48.6071C16.8113 48.6071 17.5281 47.9231 17.5281 47.0315C17.5281 46.1399 16.8113 45.4558 15.9753 45.4558C15.1392 45.4558 14.4225 46.1399 14.4225 47.0315C14.4225 47.9231 15.1392 48.6071 15.9753 48.6071ZM15.9753 51.6899C18.5481 51.6899 20.6337 49.6043 20.6337 47.0315C20.6337 44.4586 18.5481 42.373 15.9753 42.373C13.4024 42.373 11.3168 44.4586 11.3168 47.0315C11.3168 49.6043 13.4024 51.6899 15.9753 51.6899Z" fill="black"/>
<path d="M15.9753 52.1071C18.7298 52.1071 21.0281 49.8705 21.0281 47.0315H14.0281C14.0281 45.9756 14.8928 45.1071 15.9753 45.1071V52.1071ZM21.0281 47.0315C21.0281 44.1924 18.7298 41.9558 15.9753 41.9558V48.9558C14.8928 48.9558 14.0281 48.0873 14.0281 47.0315H21.0281ZM15.9753 41.9558C13.2207 41.9558 10.9225 44.1924 10.9225 47.0315H17.9225C17.9225 48.0873 17.0577 48.9558 15.9753 48.9558V41.9558ZM10.9225 47.0315C10.9225 49.8705 13.2207 52.1071 15.9753 52.1071V45.1071C17.0577 45.1071 17.9225 45.9756 17.9225 47.0315H10.9225ZM15.9753 55.1899C20.4811 55.1899 24.1337 51.5373 24.1337 47.0315H17.1337C17.1337 47.6713 16.6151 48.1899 15.9753 48.1899V55.1899ZM24.1337 47.0315C24.1337 42.5256 20.4811 38.873 15.9753 38.873V45.873C16.6151 45.873 17.1337 46.3916 17.1337 47.0315H24.1337ZM15.9753 38.873C11.4694 38.873 7.81683 42.5256 7.81683 47.0315H14.8168C14.8168 46.3916 15.3354 45.873 15.9753 45.873V38.873ZM7.81683 47.0315C7.81683 51.5373 11.4694 55.1899 15.9753 55.1899V48.1899C15.3354 48.1899 14.8168 47.6713 14.8168 47.0315H7.81683Z" fill="url(#paint1_linear_26_56)" mask="url(#path-2-inside-1_26_56)"/>
<path d="M40.8203 50.1371H37.7147V47.0315L39.2675 43.9258H45.4787L47.0315 47.0315V50.1371H43.9259" stroke="url(#paint2_linear_26_56)" stroke-width="3.5" stroke-linejoin="round"/>
<path d="M42.373 43.9259C43.1495 42.8906 43.9259 38.491 43.1495 36.9382" stroke="url(#paint3_linear_26_56)" stroke-width="3.5"/>
<path d="M15.5207 43.9259C14.7443 42.8906 13.9679 38.491 14.7443 36.9382" stroke="url(#paint4_linear_26_56)" stroke-width="3.5"/>
<path d="M42.373 15.9753C42.373 23.6969 36.1194 29.9506 28.3978 29.9506C20.6761 29.9506 14.4225 23.6969 14.4225 15.9753C14.4225 8.25363 20.6761 2 28.3978 2C36.1194 2 42.373 8.25363 42.373 15.9753Z" stroke="url(#paint5_linear_26_56)" stroke-width="3.5"/>
<defs>
<linearGradient id="paint0_linear_26_56" x1="2" y1="45.5263" x2="54.7955" y2="45.5263" gradientUnits="userSpaceOnUse">
<stop stop-color="#5DC9F2"/>
<stop offset="1" stop-color="#47B850"/>
</linearGradient>
<linearGradient id="paint1_linear_26_56" x1="11.3168" y1="47.099" x2="20.6337" y2="47.099" gradientUnits="userSpaceOnUse">
<stop stop-color="#5DC9F2"/>
<stop offset="1" stop-color="#47B850"/>
</linearGradient>
<linearGradient id="paint2_linear_26_56" x1="37.7147" y1="47.0765" x2="47.0315" y2="47.0765" gradientUnits="userSpaceOnUse">
<stop stop-color="#5DC9F2"/>
<stop offset="1" stop-color="#47B850"/>
</linearGradient>
<linearGradient id="paint3_linear_26_56" x1="42.373" y1="40.4827" x2="43.471" y2="40.4827" gradientUnits="userSpaceOnUse">
<stop stop-color="#5DC9F2"/>
<stop offset="1" stop-color="#47B850"/>
</linearGradient>
<linearGradient id="paint4_linear_26_56" x1="14.4227" y1="40.4827" x2="15.5207" y2="40.4827" gradientUnits="userSpaceOnUse">
<stop stop-color="#5DC9F2"/>
<stop offset="1" stop-color="#47B850"/>
</linearGradient>
<linearGradient id="paint5_linear_26_56" x1="14.4225" y1="16.1778" x2="42.373" y2="16.1778" gradientUnits="userSpaceOnUse">
<stop stop-color="#5DC9F2"/>
<stop offset="1" stop-color="#47B850"/>
</linearGradient>
</defs>
</svg>
