<svg width="53" height="53" viewBox="0 0 53 53" fill="none" xmlns="http://www.w3.org/2000/svg">
<path d="M48.7343 11.4004H37.5342V3.93359C37.5342 1.88022 35.8541 0.200195 33.8008 0.200195H18.8672C16.8138 0.200195 15.1338 1.88022 15.1338 3.93359V11.4004H3.93359C1.88022 11.4004 0.200195 13.0804 0.200195 15.1338V48.7343C0.200195 50.7877 1.88022 52.4677 3.93359 52.4677H48.7343C50.7877 52.4677 52.4677 50.7877 52.4677 48.7343V15.1338C52.4677 13.0804 50.7877 11.4004 48.7343 11.4004ZM18.8672 3.93359H33.8008V11.4004H18.8672V3.93359ZM48.7343 48.7343H3.93359V15.1338H48.7343V48.7343Z" fill="url(#paint0_linear_26_37)"/>
<path d="M28.2007 22.6006H24.4673V30.0674H17.0005V33.8008H24.4673V41.2676H28.2007V33.8008H35.6675V30.0674H28.2007V22.6006Z" fill="url(#paint1_linear_26_37)"/>
<defs>
<linearGradient id="paint0_linear_26_37" x1="0.200196" y1="26.7127" x2="52.4677" y2="26.7127" gradientUnits="userSpaceOnUse">
<stop stop-color="#5DC9F2"/>
<stop offset="1" stop-color="#47B850"/>
</linearGradient>
<linearGradient id="paint1_linear_26_37" x1="17.0005" y1="32.0693" x2="35.6675" y2="32.0693" gradientUnits="userSpaceOnUse">
<stop stop-color="#5DC9F2"/>
<stop offset="1" stop-color="#47B850"/>
</linearGradient>
</defs>
</svg>
