<svg width="165" height="167" viewBox="0 0 165 167" fill="none" xmlns="http://www.w3.org/2000/svg">
<path d="M99.0361 79.6036L53.4561 90.9946C52.9324 91.1125 52.4376 91.3338 52.0006 91.6456C51.5637 91.9575 51.1935 92.3535 50.9118 92.8104C50.63 93.2673 50.4425 93.776 50.3602 94.3064C50.2778 94.8369 50.3023 95.3785 50.4323 95.8993C50.5622 96.4201 50.795 96.9097 51.1168 97.3393C51.4387 97.769 51.8432 98.1299 52.3065 98.401C52.7699 98.672 53.2827 98.8477 53.8149 98.9178C54.3471 98.9878 54.888 98.9508 55.4057 98.8088L100.986 87.4178C102 87.1396 102.866 86.4754 103.397 85.5672C103.928 84.6591 104.083 83.5791 103.829 82.5583C103.574 81.5375 102.93 80.6568 102.034 80.1046C101.139 79.5525 100.063 79.3727 99.0361 79.6036Z" fill="url(#paint0_linear_208_17)"/>
<path d="M82.9164 78.5001C85.3055 78.4996 87.6408 77.7909 89.6272 76.4636C91.6137 75.1363 93.1621 73.2499 94.0768 71.0429C94.9915 68.8358 95.2315 66.4072 94.7664 64.0638C94.3013 61.7204 93.1519 59.5675 91.4636 57.8771C89.1615 55.6779 86.1002 54.4507 82.9164 54.4507C79.7326 54.4507 76.6713 55.6779 74.3691 57.8771C72.6809 59.5675 71.5315 61.7204 71.0664 64.0638C70.6013 66.4072 70.8413 68.8358 71.756 71.0429C72.6707 73.2499 74.2191 75.1363 76.2055 76.4636C78.192 77.7909 80.5273 78.4996 82.9164 78.5001ZM80.0727 63.5726C80.636 63.0092 81.3537 62.6254 82.135 62.4699C82.9164 62.3144 83.7263 62.3941 84.4624 62.6989C85.1985 63.0037 85.8276 63.52 86.2703 64.1824C86.7129 64.8448 86.9492 65.6236 86.9492 66.4203C86.9492 67.217 86.7129 67.9959 86.2703 68.6583C85.8276 69.3207 85.1985 69.8369 84.4624 70.1418C83.7263 70.4466 82.9164 70.5263 82.135 70.3708C81.3537 70.2153 80.636 69.8315 80.0727 69.2681C79.3176 68.5127 78.8934 67.4884 78.8934 66.4203C78.8934 65.3523 79.3176 64.328 80.0727 63.5726Z" fill="url(#paint1_linear_208_17)"/>
<path d="M62.9779 103.449C61.2888 105.139 60.1387 107.292 59.673 109.636C59.2074 111.98 59.4472 114.409 60.362 116.617C61.2768 118.824 62.8256 120.711 64.8126 122.039C66.7996 123.366 69.1356 124.075 71.5252 124.075C73.9148 124.075 76.2508 123.366 78.2378 122.039C80.2247 120.711 81.7736 118.824 82.6884 116.617C83.6032 114.409 83.8429 111.98 83.3773 109.636C82.9117 107.292 81.7616 105.139 80.0724 103.449C78.9502 102.326 77.6178 101.435 76.1512 100.828C74.6847 100.22 73.1127 99.907 71.5252 99.907C69.9377 99.907 68.3657 100.22 66.8991 100.828C65.4326 101.435 64.1001 102.326 62.9779 103.449ZM74.3689 114.84C73.6035 115.576 72.583 115.987 71.5211 115.987C70.4593 115.987 69.4388 115.576 68.6734 114.84C68.1114 114.276 67.7291 113.559 67.5746 112.778C67.4202 111.997 67.5006 111.188 67.8058 110.452C68.1109 109.717 68.627 109.089 69.289 108.647C69.951 108.205 70.7291 107.968 71.5252 107.968C72.0535 107.966 72.5771 108.068 73.0653 108.27C73.5536 108.472 73.9967 108.769 74.3689 109.144C75.124 109.9 75.5482 110.924 75.5482 111.992C75.5482 113.06 75.124 114.085 74.3689 114.84Z" fill="url(#paint2_linear_208_17)"/>
<path d="M164.981 19.4509C165.139 14.6012 163.533 9.85879 160.462 6.10234C158.609 4.05307 156.321 2.44406 153.766 1.39308C151.212 0.342111 148.454 -0.124217 145.695 0.0282342C142.642 -0.0852324 139.601 0.481868 136.794 1.68846C133.986 2.89506 131.482 4.71094 129.463 7.0046C127.073 9.84721 125.289 13.1476 124.219 16.7038H73.1928C72.6635 16.7029 72.1392 16.8063 71.6499 17.0081C71.1606 17.2099 70.7158 17.5062 70.3411 17.88L3.54199 84.6871C2.41909 85.8093 1.52831 87.1417 0.920563 88.6083C0.312813 90.0749 0 91.6468 0 93.2343C0 94.8219 0.312813 96.3938 0.920563 97.8604C1.52831 99.327 2.41909 100.659 3.54199 101.782L64.6456 162.885C65.7678 164.008 67.1002 164.899 68.5668 165.507C70.0334 166.114 71.6053 166.427 73.1928 166.427C74.7803 166.427 76.3523 166.114 77.8189 165.507C79.2854 164.899 80.6179 164.008 81.7401 162.885L148.547 96.0861C148.921 95.7114 149.217 95.2666 149.419 94.7773C149.621 94.288 149.724 93.7636 149.723 93.2343V43.5459C154.408 41.5484 158.376 38.1749 161.101 33.872C163.825 29.5691 165.179 24.54 164.981 19.4509ZM141.668 91.5668L76.0446 157.19C75.6704 157.565 75.2259 157.862 74.7366 158.065C74.2472 158.269 73.7226 158.373 73.1928 158.373C72.663 158.373 72.1384 158.269 71.6491 158.065C71.1597 157.862 70.7152 157.565 70.3411 157.19L9.23747 96.0861C8.86237 95.7119 8.56476 95.2675 8.3617 94.7781C8.15864 94.2888 8.05412 93.7641 8.05412 93.2343C8.05412 92.7045 8.15864 92.1799 8.3617 91.6906C8.56476 91.2012 8.86237 90.7567 9.23747 90.3826L74.8604 24.7597H122.446C121.775 30.0235 121.737 35.3488 122.333 40.6216C122.389 41.157 122.552 41.6758 122.812 42.1473C123.071 42.6188 123.423 43.0334 123.846 43.3667C124.268 43.7 124.753 43.9453 125.272 44.0879C125.792 44.2305 126.334 44.2676 126.868 44.1971C127.401 44.1266 127.915 43.9498 128.379 43.6772C128.844 43.4046 129.248 43.0417 129.57 42.61C129.892 42.1783 130.123 41.6866 130.252 41.1638C130.38 40.641 130.402 40.0978 130.317 39.5663C129.785 34.6378 129.891 29.6612 130.631 24.7597H137.64C138.708 24.7597 139.732 25.184 140.488 25.9394C141.243 26.6948 141.668 27.7193 141.668 28.7876V91.5668ZM149.723 34.757V28.7876C149.723 25.5828 148.45 22.5092 146.184 20.2431C143.918 17.9769 140.844 16.7038 137.64 16.7038H132.895C133.549 15.1129 134.44 13.63 135.537 12.3053C136.805 10.885 138.377 9.76806 140.135 9.03735C141.894 8.30665 143.794 7.98085 145.695 8.08408C147.293 7.95896 148.898 8.18796 150.396 8.75472C151.894 9.32148 153.249 10.212 154.364 11.3628C156.13 13.6676 157.036 16.5169 156.925 19.4186C156.977 22.3556 156.354 25.2653 155.106 27.9243C153.857 30.5832 152.016 32.9206 149.723 34.757Z" fill="url(#paint3_linear_208_17)"/>
<defs>
<linearGradient id="paint0_linear_208_17" x1="50.3125" y1="89.3697" x2="103.948" y2="89.3697" gradientUnits="userSpaceOnUse">
<stop stop-color="#5DC9F2"/>
<stop offset="1" stop-color="#47B850"/>
</linearGradient>
<linearGradient id="paint1_linear_208_17" x1="70.8352" y1="66.6496" x2="94.9976" y2="66.6496" gradientUnits="userSpaceOnUse">
<stop stop-color="#5DC9F2"/>
<stop offset="1" stop-color="#47B850"/>
</linearGradient>
<linearGradient id="paint2_linear_208_17" x1="59.4414" y1="112.166" x2="83.6089" y2="112.166" gradientUnits="userSpaceOnUse">
<stop stop-color="#5DC9F2"/>
<stop offset="1" stop-color="#47B850"/>
</linearGradient>
<linearGradient id="paint3_linear_208_17" x1="6.61538e-07" y1="84.4196" x2="165" y2="84.4196" gradientUnits="userSpaceOnUse">
<stop stop-color="#5DC9F2"/>
<stop offset="1" stop-color="#47B850"/>
</linearGradient>
</defs>
</svg>
