<svg width="25" height="32" viewBox="0 0 25 32" fill="none" xmlns="http://www.w3.org/2000/svg">
<path d="M11.2154 30.6865C1.75586 17.802 0 16.4796 0 11.7444C0 5.25812 5.59642 0 12.5 0C19.4036 0 25 5.25812 25 11.7444C25 16.4796 23.2441 17.802 13.7846 30.6865C13.1639 31.529 11.8361 31.529 11.2154 30.6865ZM12.5 16.6379C15.3765 16.6379 17.7083 14.447 17.7083 11.7444C17.7083 9.04178 15.3765 6.8509 12.5 6.8509C9.6235 6.8509 7.29167 9.04178 7.29167 11.7444C7.29167 14.447 9.6235 16.6379 12.5 16.6379Z" fill="white"/>
</svg>
