<svg width="56" height="53" viewBox="0 0 56 53" fill="none" xmlns="http://www.w3.org/2000/svg">
<path d="M23.8331 48.6339C25.0077 49.3465 25.9952 49.8987 26.7058 50.2811L26.6146 50.4704C26.595 50.5111 26.576 50.5506 26.5575 50.589C25.841 50.2037 24.8434 49.6461 23.6559 48.9257C21.1841 47.4259 17.8876 45.2194 14.5901 42.3925C8.00207 36.7442 1.37681 28.5898 1.37681 18.6235C1.37681 14.157 2.86315 9.85058 5.37228 6.65755L5.37229 6.65753C7.8827 3.46276 11.423 1.37681 15.5233 1.37681C20.3519 1.37681 24.0896 4.05909 26.7008 8.07596L27.8551 9.85178L29.0095 8.07596C31.6205 4.05928 35.3582 1.37681 40.1869 1.37681C44.2876 1.37681 47.8279 3.46313 50.3382 6.65797C52.8473 9.85134 54.3334 14.1578 54.3334 18.6235C54.3334 19.123 54.3154 19.6186 54.2802 20.11C54.1734 20.0148 54.0654 19.9209 53.9563 19.8282C53.9799 19.429 53.992 19.0274 53.992 18.6235C53.992 14.2303 52.5292 9.99893 50.0698 6.86894C47.6106 3.73914 44.1627 1.7182 40.1869 1.7182C34.6725 1.7182 30.5604 5.34001 28.0083 10.538L28.0083 10.5381L27.8551 10.85L27.702 10.5381L27.702 10.538C25.1497 5.33967 21.0375 1.7182 15.5233 1.7182C11.5479 1.7182 8.09997 3.73874 5.64074 6.86842C3.18123 9.99827 1.7182 14.2297 1.7182 18.6235C1.7182 28.4361 8.24613 36.5037 14.8124 42.1332C18.0919 44.945 21.3722 47.1408 23.8331 48.6339ZM32.0568 48.8093C30.8616 49.5654 29.8588 50.1535 29.1416 50.5593C29.1219 50.5207 29.1015 50.4809 29.0804 50.4399L28.9858 50.2552C29.698 49.852 30.6912 49.2692 31.8744 48.5208L31.8745 48.5208C32.1654 48.3368 32.4677 48.1428 32.7799 47.9392C32.8832 48.0081 32.9873 48.0761 33.0922 48.1429C32.7335 48.3778 32.3878 48.6 32.057 48.8092L32.0568 48.8093Z" fill="black" stroke="url(#paint0_linear_26_47)" stroke-width="2.75362"/>
<mask id="path-2-inside-1_26_47" fill="white">
<path d="M27.8551 51.0677L28.5618 52.4444L27.8766 52.7955L27.1827 52.4616L27.8551 51.0677Z"/>
</mask>
<path d="M27.8551 51.0677L28.5618 52.4444L27.8766 52.7955L27.1827 52.4616L27.8551 51.0677Z" fill="black"/>
<path d="M27.8551 51.0677L30.3047 49.8101L27.7784 44.8891L25.375 49.8713L27.8551 51.0677ZM28.5618 52.4444L29.8176 54.895L32.27 53.6383L31.0115 51.1868L28.5618 52.4444ZM27.8766 52.7955L26.6824 55.2768L27.915 55.8699L29.1323 55.2461L27.8766 52.7955ZM27.1827 52.4616L24.7026 51.2652L23.505 53.7476L25.9885 54.9428L27.1827 52.4616ZM25.4054 52.3253L26.1122 53.702L31.0115 51.1868L30.3047 49.8101L25.4054 52.3253ZM27.3061 49.9938L26.6208 50.3449L29.1323 55.2461L29.8176 54.895L27.3061 49.9938ZM29.0707 50.3143L28.3768 49.9804L25.9885 54.9428L26.6824 55.2768L29.0707 50.3143ZM29.6628 53.658L30.3352 52.2642L25.375 49.8713L24.7026 51.2652L29.6628 53.658Z" fill="url(#paint1_linear_26_47)" mask="url(#path-2-inside-1_26_47)"/>
<path d="M41.3105 32.1048L41.9277 32.7221L42.7493 32.4271C42.9288 32.3627 43.1237 32.3269 43.3301 32.3269C44.2791 32.3269 45.0483 33.0961 45.0483 34.0451C45.0483 34.9941 44.2791 35.7633 43.3301 35.7633C42.3811 35.7633 41.6119 34.9941 41.6119 34.0451C41.6119 33.9418 41.6209 33.8413 41.638 33.7437L41.7614 33.0387L41.2554 32.5327L38.4849 29.7622L38.7264 29.5208L41.3105 32.1048Z" fill="black" stroke="url(#paint2_linear_26_47)" stroke-width="2.75362"/>
<path d="M54.3334 33.2714C54.3334 39.7756 49.0606 45.0484 42.5564 45.0484C36.0522 45.0484 30.7794 39.7756 30.7794 33.2714C30.7794 26.7671 36.0522 21.4944 42.5564 21.4944C49.0606 21.4944 54.3334 26.7671 54.3334 33.2714ZM42.5564 44.707C48.8722 44.707 53.992 39.5871 53.992 33.2714C53.992 26.9556 48.8722 21.8358 42.5564 21.8358C36.2406 21.8358 31.1208 26.9556 31.1208 33.2714C31.1208 39.5871 36.2406 44.707 42.5564 44.707Z" fill="black" stroke="url(#paint3_linear_26_47)" stroke-width="2.75362"/>
<defs>
<linearGradient id="paint0_linear_26_47" x1="2.2336e-07" y1="26.6109" x2="55.7102" y2="26.6109" gradientUnits="userSpaceOnUse">
<stop stop-color="#5DC9F2"/>
<stop offset="1" stop-color="#47B850"/>
</linearGradient>
<linearGradient id="paint1_linear_26_47" x1="27.1827" y1="51.9442" x2="28.5618" y2="51.9442" gradientUnits="userSpaceOnUse">
<stop stop-color="#5DC9F2"/>
<stop offset="1" stop-color="#47B850"/>
</linearGradient>
<linearGradient id="paint2_linear_26_47" x1="36.5378" y1="32.4262" x2="46.4251" y2="32.4262" gradientUnits="userSpaceOnUse">
<stop stop-color="#5DC9F2"/>
<stop offset="1" stop-color="#47B850"/>
</linearGradient>
<linearGradient id="paint3_linear_26_47" x1="29.4026" y1="33.462" x2="55.7102" y2="33.462" gradientUnits="userSpaceOnUse">
<stop stop-color="#5DC9F2"/>
<stop offset="1" stop-color="#47B850"/>
</linearGradient>
</defs>
</svg>
