<svg width="30" height="29" viewBox="0 0 30 29" fill="none" xmlns="http://www.w3.org/2000/svg">
<path d="M15 2.37256C12.5277 2.37256 10.111 3.06831 8.05538 4.37184C5.99976 5.67536 4.39761 7.52812 3.45151 9.6958C2.50542 11.8635 2.25787 14.2487 2.74019 16.5499C3.2225 18.8511 4.41301 20.9649 6.16117 22.624C7.90933 24.2831 10.1366 25.4129 12.5614 25.8707C14.9861 26.3284 17.4995 26.0935 19.7836 25.1956C22.0676 24.2977 24.0199 22.7772 25.3934 20.8263C26.7669 18.8755 27.5 16.5819 27.5 14.2356C27.5 12.6777 27.1767 11.1351 26.5485 9.6958C25.9203 8.25651 24.9996 6.94874 23.8388 5.84716C22.6781 4.74557 21.3001 3.87175 19.7836 3.27558C18.267 2.6794 16.6415 2.37256 15 2.37256ZM20 15.4219H15C14.6685 15.4219 14.3505 15.2969 14.1161 15.0744C13.8817 14.852 13.75 14.5502 13.75 14.2356V9.49037C13.75 9.17575 13.8817 8.87401 14.1161 8.65153C14.3505 8.42906 14.6685 8.30407 15 8.30407C15.3315 8.30407 15.6495 8.42906 15.8839 8.65153C16.1183 8.87401 16.25 9.17575 16.25 9.49037V13.0493H20C20.3315 13.0493 20.6495 13.1743 20.8839 13.3967C21.1183 13.6192 21.25 13.921 21.25 14.2356C21.25 14.5502 21.1183 14.852 20.8839 15.0744C20.6495 15.2969 20.3315 15.4219 20 15.4219Z" fill="white"/>
</svg>
